<?xml version="1.0" standalone="no"?>
<!DOCTYPE svg PUBLIC "-//W3C//DTD SVG 20010904//EN"
 "http://www.w3.org/TR/2001/REC-SVG-20010904/DTD/svg10.dtd">
<svg version="1.0" xmlns="http://www.w3.org/2000/svg"
 width="512.000000pt" height="512.000000pt" viewBox="0 0 512.000000 512.000000"
 preserveAspectRatio="xMidYMid meet" style="background:#7aff8e">

<g transform="translate(0.000000,512.000000) scale(0.100000,-0.100000)"
fill="#000000" stroke="none">
<path d="M2260 4357 c-136 -38 -224 -152 -224 -293 0 -61 4 -81 31 -133 21
-41 28 -63 20 -65 -7 -2 -64 -17 -128 -34 -264 -70 -554 -214 -780 -388 -84
-64 -214 -186 -296 -277 -75 -83 -87 -112 -63 -158 9 -16 2 -33 -45 -99 -54
-76 -56 -79 -90 -73 -28 4 -38 1 -60 -23 -39 -42 -148 -272 -198 -419 -91
-267 -116 -426 -124 -781 l-6 -262 -41 -6 c-179 -28 -294 -208 -242 -380 31
-103 107 -174 216 -202 57 -14 69 -14 228 10 997 150 1983 195 2949 135 212
-14 235 -10 254 38 12 33 0 65 -33 86 -30 20 -232 33 -700 49 -766 25 -1689
-32 -2470 -152 -159 -25 -195 -25 -236 0 -44 27 -75 96 -66 146 10 52 55 99
108 113 66 16 501 77 756 105 677 76 1321 105 1890 86 589 -19 1140 -67 1673
-145 283 -41 296 -44 333 -77 66 -58 68 -152 5 -212 -42 -41 -93 -43 -301 -12
-191 28 -341 47 -552 71 -152 17 -178 12 -198 -34 -12 -30 -2 -68 23 -89 8 -7
75 -19 148 -27 178 -20 494 -61 652 -86 76 -11 144 -17 170 -13 98 15 191 85
229 171 78 176 -24 376 -213 415 l-56 11 -6 261 c-6 284 -20 406 -67 595 -102
402 -311 765 -611 1061 -271 268 -636 475 -1000 569 -60 15 -110 31 -110 35 0
4 12 32 28 63 73 151 3 333 -156 407 -43 20 -64 21 -321 23 -197 2 -288 -1
-320 -10z m604 -166 c45 -30 66 -70 66 -128 0 -41 -5 -58 -26 -83 -50 -59 -58
-60 -346 -60 -245 0 -265 1 -296 20 -86 53 -96 167 -20 236 12 12 30 24 38 27
8 3 137 6 285 6 248 1 272 -1 299 -18z m-217 -462 c702 -293 1185 -1038 1307
-2014 27 -220 29 -255 14 -250 -18 6 -490 42 -713 55 -599 34 -1358 17 -1987
-44 l-128 -12 6 70 c10 127 52 398 79 521 71 316 187 613 337 864 179 297 470
582 744 728 101 54 233 113 252 113 7 0 47 -14 89 -31z m485 -49 c761 -213
1334 -835 1494 -1621 25 -121 28 -160 32 -407 l4 -273 -23 6 c-23 5 -331 46
-451 60 l-58 6 0 47 c0 72 -29 302 -56 452 -92 499 -262 905 -526 1258 -122
162 -335 366 -508 484 -34 23 -29 22 92 -12z"/>
<path d="M1872 2489 c-47 -14 -115 -85 -130 -135 -18 -62 -15 -92 13 -119 47
-48 108 -23 126 51 24 92 129 79 129 -16 0 -20 44 -60 66 -60 28 0 63 24 74
50 24 57 -18 155 -86 203 -46 32 -133 44 -192 26z"/>
<path d="M3107 2490 c-124 -39 -194 -226 -101 -269 14 -6 31 -11 38 -11 22 0
66 40 66 60 0 34 23 70 47 77 41 10 69 -11 82 -61 19 -75 79 -99 128 -50 22
22 25 31 19 71 -14 107 -90 182 -192 189 -32 2 -72 -1 -87 -6z"/>
<path d="M2362 2177 c-70 -74 50 -187 198 -187 149 0 272 118 197 188 -27 26
-79 29 -98 6 -20 -24 -65 -44 -99 -44 -34 0 -79 20 -99 44 -20 24 -74 20 -99
-7z"/>
</g>
</svg>
